<svg width="18" height="18" viewBox="0 0 18 18" fill="none" xmlns="http://www.w3.org/2000/svg">
<path d="M1.18039 5.36134H5.90715V7.72057V7.72472H1.18039V5.36134Z" fill="#B2B2B2"/>
<path d="M1.18039 3H3.54377V5.36338H1.18039V3Z" fill="#CCCCCC"/>
<path d="M10.6345 3H12.9979V5.36338H10.6345V5.36134V3Z" fill="#CCCCCC"/>
<path d="M5.9089 10.0819H8.27228V10.0839V12.4453H5.9089V10.0839V10.0819Z" fill="#7F7F7F"/>
<path d="M1.18039 10.0819H3.54377V10.0839V12.4453H1.18039V10.0819Z" fill="#7F7F7F"/>
<path d="M1.18039 12.4433H3.54377V14.8066H1.18039V12.4433Z" fill="#666666"/>
<path d="M7.08959 5.36134V7.72057H8.27315V5.36236L7.08959 5.36134Z" fill="#4C4C4C"/>
<path d="M4.72533 10.0839V12.4453H5.9089V10.0839H4.72533Z" fill="#4C4C4C"/>
<path d="M0 3V14.8066H1.18039V12.4453V12.4433V10.0839V10.0819V7.72472V7.72057V5.36338V5.36134V3H0Z" fill="#4C4C4C"/>
<path d="M10.6345 3H9.45384V5.36134H10.6345V3Z" fill="#4C4C4C"/>
<path d="M9.45384 10.0839V14.8066H10.6345V12.4453V12.4433V10.0839H9.45384Z" fill="#4C4C4C"/>
<path d="M12.9979 5.36338H10.6345V5.36134L9.45384 5.36338L8.27315 5.36236V7.72057V7.72472H11.3293C11.4319 7.39064 11.533 7.04904 11.6199 6.73604C11.7503 6.26651 12.132 5.99092 12.8516 5.99092H12.9973L12.9979 5.36338Z" fill="#B2B2B2"/>
<path d="M10.6345 10.0839V12.4433L12.9979 12.4453V10.0839L10.6345 10.0819V10.0839Z" fill="#7F7F7F"/>
<path d="M1.18039 7.72472V10.0819H3.54377V10.0839H4.72533H5.9089V10.0819H8.27228V10.0839H9.45384H10.6345V10.0819L12.9979 10.0839V9.92575H12.0066C11.5887 9.92575 11.3088 9.70848 11.1511 9.44326C10.9978 9.18543 10.9601 8.88228 11.0233 8.68934C11.1177 8.40162 11.2242 8.06712 11.3293 7.72472H8.27315V7.72057H7.08959H5.90715V7.72472H1.18039Z" fill="#999999"/>
<path d="M10.6345 12.4453V14.8066H12.6926L12.9979 13.7053V12.4453L10.6345 12.4433V12.4453Z" fill="#666666"/>
<path d="M12.5889 7L12 8.91939H15.4058L13.0981 17H15.0557L18 7H12.5889Z" fill="#999999"/>
</svg>
